{
    "asset" : {
        "generator" : "Khronos glTF Blender I/O v1.3.48",
        "version" : "2.0"
    },
    "scene" : 0,
    "scenes" : [
        {
            "name" : "Scene",
            "nodes" : [
                0,
                1,
                2,
                3
            ]
        }
    ],
    "nodes" : [
        {
            "name" : "Light",
            "rotation" : [
                0.16907575726509094,
                0.7558803558349609,
                -0.27217137813568115,
                0.570947527885437
            ],
            "translation" : [
                4.076245307922363,
                5.903861999511719,
                -1.0054539442062378
            ]
        },
        {
            "name" : "Camera",
            "rotation" : [
                0.483536034822464,
                0.33687159419059753,
                -0.20870360732078552,
                0.7804827094078064
            ],
            "translation" : [
                7.358891487121582,
                4.958309173583984,
                6.925790786743164
            ]
        },
        {
            "mesh" : 0,
            "name" : "Text",
            "scale" : [
                1.838162899017334,
                1.838162899017334,
                1.838162899017334
            ],
            "translation" : [
                -1.445260763168335,
                0.7763063907623291,
                0.0556035079061985
            ]
        },
        {
            "mesh" : 1,
            "name" : "Cylinder",
            "scale" : [
                2.188265085220337,
                0.25811412930488586,
                2.188265085220337
            ],
            "translation" : [
                -4.235776901245117,
                0.9363787174224854,
                0.25392988324165344
            ]
        }
    ],
    "materials" : [
        {
            "doubleSided" : true,
            "emissiveFactor" : [
                0,
                0,
                0
            ],
            "name" : "Material.002",
            "pbrMetallicRoughness" : {
                "baseColorFactor" : [
                    0.103645458817482,
                    0.26597127318382263,
                    0.8000000715255737,
                    1
                ],
                "metallicFactor" : 0,
                "roughnessFactor" : 0.5
            }
        },
        {
            "doubleSided" : true,
            "emissiveFactor" : [
                0,
                0,
                0
            ],
            "name" : "Material.001",
            "pbrMetallicRoughness" : {
                "baseColorFactor" : [
                    0.6274473071098328,
                    0.8000000715255737,
                    0.0009285605046898127,
                    1
                ],
                "metallicFactor" : 0,
                "roughnessFactor" : 0.5
            }
        },
        {
            "doubleSided" : true,
            "emissiveFactor" : [
                0,
                0,
                0
            ],
            "name" : "Material",
            "pbrMetallicRoughness" : {
                "baseColorFactor" : [
                    0.423267662525177,
                    0.21223074197769165,
                    0.1169707179069519,
                    1
                ],
                "roughnessFactor" : 1
            }
        }
    ],
    "meshes" : [
        {
            "name" : "Text",
            "primitives" : [
                {
                    "attributes" : {
                        "POSITION" : 0,
                        "NORMAL" : 1,
                        "TEXCOORD_0" : 2
                    },
                    "indices" : 3,
                    "material" : 0
                }
            ]
        },
        {
            "name" : "Cylinder",
            "primitives" : [
                {
                    "attributes" : {
                        "POSITION" : 4,
                        "NORMAL" : 5,
                        "TEXCOORD_0" : 6
                    },
                    "indices" : 7,
                    "material" : 1
                },
                {
                    "attributes" : {
                        "POSITION" : 8,
                        "NORMAL" : 9,
                        "TEXCOORD_0" : 10
                    },
                    "indices" : 11,
                    "material" : 2
                }
            ]
        }
    ],
    "accessors" : [
        {
            "bufferView" : 0,
            "componentType" : 5126,
            "count" : 23715,
            "max" : [
                4.264891147613525,
                0.18000000715255737,
                0.774617075920105
            ],
            "min" : [
                0.0039100684225559235,
                -0.18000000715255737,
                -0.5386119484901428
            ],
            "type" : "VEC3"
        },
        {
            "bufferView" : 1,
            "componentType" : 5126,
            "count" : 23715,
            "type" : "VEC3"
        },
        {
            "bufferView" : 2,
            "componentType" : 5126,
            "count" : 23715,
            "type" : "VEC2"
        },
        {
            "bufferView" : 3,
            "componentType" : 5123,
            "count" : 43116,
            "type" : "SCALAR"
        },
        {
            "bufferView" : 4,
            "componentType" : 5126,
            "count" : 192,
            "max" : [
                1,
                1,
                1
            ],
            "min" : [
                -1,
                -1,
                -1
            ],
            "type" : "VEC3"
        },
        {
            "bufferView" : 5,
            "componentType" : 5126,
            "count" : 192,
            "type" : "VEC3"
        },
        {
            "bufferView" : 6,
            "componentType" : 5126,
            "count" : 192,
            "type" : "VEC2"
        },
        {
            "bufferView" : 7,
            "componentType" : 5123,
            "count" : 372,
            "type" : "SCALAR"
        },
        {
            "bufferView" : 8,
            "componentType" : 5126,
            "count" : 26,
            "max" : [
                5.326778888702393,
                -0.051959991455078125,
                1.6151925325393677
            ],
            "min" : [
                -1.4554232358932495,
                -4.941573143005371,
                -1.8472758531570435
            ],
            "type" : "VEC3"
        },
        {
            "bufferView" : 9,
            "componentType" : 5126,
            "count" : 26,
            "type" : "VEC3"
        },
        {
            "bufferView" : 10,
            "componentType" : 5126,
            "count" : 26,
            "type" : "VEC2"
        },
        {
            "bufferView" : 11,
            "componentType" : 5123,
            "count" : 108,
            "type" : "SCALAR"
        }
    ],
    "bufferViews" : [
        {
            "buffer" : 0,
            "byteLength" : 284580,
            "byteOffset" : 0
        },
        {
            "buffer" : 0,
            "byteLength" : 284580,
            "byteOffset" : 284580
        },
        {
            "buffer" : 0,
            "byteLength" : 189720,
            "byteOffset" : 569160
        },
        {
            "buffer" : 0,
            "byteLength" : 86232,
            "byteOffset" : 758880
        },
        {
            "buffer" : 0,
            "byteLength" : 2304,
            "byteOffset" : 845112
        },
        {
            "buffer" : 0,
            "byteLength" : 2304,
            "byteOffset" : 847416
        },
        {
            "buffer" : 0,
            "byteLength" : 1536,
            "byteOffset" : 849720
        },
        {
            "buffer" : 0,
            "byteLength" : 744,
            "byteOffset" : 851256
        },
        {
            "buffer" : 0,
            "byteLength" : 312,
            "byteOffset" : 852000
        },
        {
            "buffer" : 0,
            "byteLength" : 312,
            "byteOffset" : 852312
        },
        {
            "buffer" : 0,
            "byteLength" : 208,
            "byteOffset" : 852624
        },
        {
            "buffer" : 0,
            "byteLength" : 216,
            "byteOffset" : 852832
        }
    ],
    "buffers" : [
        {
            "byteLength" : 853048,
            "uri" : "data:application/octet-stream;base64,"
        }
    ]
}
