{
    "asset" : {
        "generator" : "Khronos glTF Blender I/O v1.3.48",
        "version" : "2.0"
    },
    "scene" : 0,
    "scenes" : [
        {
            "name" : "Scene",
            "nodes" : [
                0,
                1,
                2,
                3,
                4,
                5,
                6
            ]
        }
    ],
    "nodes" : [
        {
            "name" : "Light",
            "rotation" : [
                0.16907575726509094,
                0.7558803558349609,
                -0.27217137813568115,
                0.570947527885437
            ],
            "translation" : [
                4.076245307922363,
                5.903861999511719,
                -1.0054539442062378
            ]
        },
        {
            "name" : "Camera",
            "rotation" : [
                0.483536034822464,
                0.33687159419059753,
                -0.20870360732078552,
                0.7804827094078064
            ],
            "translation" : [
                7.358891487121582,
                4.958309173583984,
                6.925790786743164
            ]
        },
        {
            "mesh" : 0,
            "name" : "Pole",
            "scale" : [
                0.02322295494377613,
                0.772748589515686,
                1.0880913734436035
            ],
            "translation" : [
                0,
                0,
                -1.0881929397583008
            ]
        },
        {
            "mesh" : 1,
            "name" : "Logo Letter",
            "scale" : [
                0.9347034096717834,
                0.9347034096717834,
                0.9347034096717834
            ],
            "translation" : [
                -0.16276468336582184,
                0,
                -2.4792919158935547
            ]
        },
        {
            "mesh" : 2,
            "name" : "Hex",
            "scale" : [
                0.4091380834579468,
                0.4091380834579468,
                0.4091380834579468
            ],
            "translation" : [
                0,
                0,
                -2.7383995056152344
            ]
        },
        {
            "mesh" : 3,
            "name" : "Title",
            "scale" : [
                1,
                1,
                0.7965817451477051
            ],
            "translation" : [
                0.5195992588996887,
                0,
                -2.5577170848846436
            ]
        },
        {
            "mesh" : 4,
            "name" : "Text",
            "scale" : [
                0.5419983267784119,
                0.5419983267784119,
                0.5419983267784119
            ],
            "translation" : [
                0.46293702721595764,
                -0.11057868599891663,
                -1.8799386024475098
            ]
        }
    ],
    "materials" : [
        {
            "doubleSided" : true,
            "emissiveFactor" : [
                0,
                1,
                0.0029229712672531605
            ],
            "name" : "GlowMat",
            "pbrMetallicRoughness" : {
                "baseColorFactor" : [
                    1,
                    0,
                    0,
                    1
                ],
                "metallicFactor" : 0,
                "roughnessFactor" : 0.5
            }
        }
    ],
    "meshes" : [
        {
            "name" : "Plane",
            "primitives" : [
                {
                    "attributes" : {
                        "POSITION" : 0,
                        "NORMAL" : 1,
                        "TEXCOORD_0" : 2
                    },
                    "indices" : 3,
                    "material" : 0
                }
            ]
        },
        {
            "name" : "Text",
            "primitives" : [
                {
                    "attributes" : {
                        "POSITION" : 4,
                        "NORMAL" : 5,
                        "TEXCOORD_0" : 6
                    },
                    "indices" : 7,
                    "material" : 0
                }
            ]
        },
        {
            "name" : "Circle.001",
            "primitives" : [
                {
                    "attributes" : {
                        "POSITION" : 8,
                        "NORMAL" : 9,
                        "TEXCOORD_0" : 10
                    },
                    "indices" : 11,
                    "material" : 0
                }
            ]
        },
        {
            "name" : "Text.001",
            "primitives" : [
                {
                    "attributes" : {
                        "POSITION" : 12,
                        "NORMAL" : 13,
                        "TEXCOORD_0" : 14
                    },
                    "indices" : 15,
                    "material" : 0
                }
            ]
        },
        {
            "name" : "Text.002",
            "primitives" : [
                {
                    "attributes" : {
                        "POSITION" : 16,
                        "NORMAL" : 17,
                        "TEXCOORD_0" : 18
                    },
                    "indices" : 19,
                    "material" : 0
                }
            ]
        }
    ],
    "accessors" : [
        {
            "bufferView" : 0,
            "componentType" : 5126,
            "count" : 4,
            "max" : [
                1,
                0,
                1
            ],
            "min" : [
                -1,
                0,
                -1
            ],
            "type" : "VEC3"
        },
        {
            "bufferView" : 1,
            "componentType" : 5126,
            "count" : 4,
            "type" : "VEC3"
        },
        {
            "bufferView" : 2,
            "componentType" : 5126,
            "count" : 4,
            "type" : "VEC2"
        },
        {
            "bufferView" : 3,
            "componentType" : 5123,
            "count" : 6,
            "type" : "SCALAR"
        },
        {
            "bufferView" : 4,
            "componentType" : 5126,
            "count" : 260,
            "max" : [
                0.37711265683174133,
                0.017320508137345314,
                0.009999997913837433
            ],
            "min" : [
                0.0355820506811142,
                0.017320508137345314,
                -0.5240252614021301
            ],
            "type" : "VEC3"
        },
        {
            "bufferView" : 5,
            "componentType" : 5126,
            "count" : 260,
            "type" : "VEC3"
        },
        {
            "bufferView" : 6,
            "componentType" : 5126,
            "count" : 260,
            "type" : "VEC2"
        },
        {
            "bufferView" : 7,
            "componentType" : 5123,
            "count" : 768,
            "type" : "SCALAR"
        },
        {
            "bufferView" : 8,
            "componentType" : 5126,
            "count" : 16,
            "max" : [
                0.9863039255142212,
                0,
                1.138885736465454
            ],
            "min" : [
                -0.9863039255142212,
                0,
                -1.138885498046875
            ],
            "type" : "VEC3"
        },
        {
            "bufferView" : 9,
            "componentType" : 5126,
            "count" : 16,
            "type" : "VEC3"
        },
        {
            "bufferView" : 10,
            "componentType" : 5126,
            "count" : 16,
            "type" : "VEC2"
        },
        {
            "bufferView" : 11,
            "componentType" : 5123,
            "count" : 36,
            "type" : "SCALAR"
        },
        {
            "bufferView" : 12,
            "componentType" : 5126,
            "count" : 2124,
            "max" : [
                4.905657768249512,
                0,
                0.00862366333603859
            ],
            "min" : [
                0.03828906640410423,
                0,
                -0.5143153071403503
            ],
            "type" : "VEC3"
        },
        {
            "bufferView" : 13,
            "componentType" : 5126,
            "count" : 2124,
            "type" : "VEC3"
        },
        {
            "bufferView" : 14,
            "componentType" : 5126,
            "count" : 2124,
            "type" : "VEC2"
        },
        {
            "bufferView" : 15,
            "componentType" : 5123,
            "count" : 4860,
            "type" : "SCALAR"
        },
        {
            "bufferView" : 16,
            "componentType" : 5126,
            "count" : 28738,
            "max" : [
                6.6232123374938965,
                7.450580596923828e-09,
                2.2405803203582764
            ],
            "min" : [
                0.010216591879725456,
                -7.450580596923828e-09,
                -0.5431140065193176
            ],
            "type" : "VEC3"
        },
        {
            "bufferView" : 17,
            "componentType" : 5126,
            "count" : 28738,
            "type" : "VEC3"
        },
        {
            "bufferView" : 18,
            "componentType" : 5126,
            "count" : 28738,
            "type" : "VEC2"
        },
        {
            "bufferView" : 19,
            "componentType" : 5123,
            "count" : 72492,
            "type" : "SCALAR"
        }
    ],
    "bufferViews" : [
        {
            "buffer" : 0,
            "byteLength" : 48,
            "byteOffset" : 0
        },
        {
            "buffer" : 0,
            "byteLength" : 48,
            "byteOffset" : 48
        },
        {
            "buffer" : 0,
            "byteLength" : 32,
            "byteOffset" : 96
        },
        {
            "buffer" : 0,
            "byteLength" : 12,
            "byteOffset" : 128
        },
        {
            "buffer" : 0,
            "byteLength" : 3120,
            "byteOffset" : 140
        },
        {
            "buffer" : 0,
            "byteLength" : 3120,
            "byteOffset" : 3260
        },
        {
            "buffer" : 0,
            "byteLength" : 2080,
            "byteOffset" : 6380
        },
        {
            "buffer" : 0,
            "byteLength" : 1536,
            "byteOffset" : 8460
        },
        {
            "buffer" : 0,
            "byteLength" : 192,
            "byteOffset" : 9996
        },
        {
            "buffer" : 0,
            "byteLength" : 192,
            "byteOffset" : 10188
        },
        {
            "buffer" : 0,
            "byteLength" : 128,
            "byteOffset" : 10380
        },
        {
            "buffer" : 0,
            "byteLength" : 72,
            "byteOffset" : 10508
        },
        {
            "buffer" : 0,
            "byteLength" : 25488,
            "byteOffset" : 10580
        },
        {
            "buffer" : 0,
            "byteLength" : 25488,
            "byteOffset" : 36068
        },
        {
            "buffer" : 0,
            "byteLength" : 16992,
            "byteOffset" : 61556
        },
        {
            "buffer" : 0,
            "byteLength" : 9720,
            "byteOffset" : 78548
        },
        {
            "buffer" : 0,
            "byteLength" : 344856,
            "byteOffset" : 88268
        },
        {
            "buffer" : 0,
            "byteLength" : 344856,
            "byteOffset" : 433124
        },
        {
            "buffer" : 0,
            "byteLength" : 229904,
            "byteOffset" : 777980
        },
        {
            "buffer" : 0,
            "byteLength" : 144984,
            "byteOffset" : 1007884
        }
    ],
    "buffers" : [
        {
            "byteLength" : 1152868,
            "uri" : "data:application/octet-stream;base64,"
        }
    ]
}
