{"extensionsUsed" : ["KHR_materials_pbrSpecularGlossiness"], "accessors" : [{"bufferView" : 0, "byteOffset" : 0, "componentType" : 5123, "count" : 36, "type" : "SCALAR", "max" : [35], "min" : [0]}, {"bufferView" : 1, "byteOffset" : 0, "componentType" : 5126, "count" : 36, "type" : "VEC3", "max" : [653.7428588867188, 325.1956481933594, 325.1956481933594], "min" : [-653.7428588867188, -325.1956481933594, -325.1956481933594]}, {"bufferView" : 1, "byteOffset" : 12, "componentType" : 5126, "count" : 36, "type" : "VEC3", "max" : [1.0000044107437134, 1.0000044107437134, 1.0000044107437134], "min" : [-1.0000044107437134, -1.0000044107437134, -1.0000044107437134]}, {"bufferView" : 1, "byteOffset" : 24, "componentType" : 5126, "count" : 36, "type" : "VEC2", "max" : [0.7497861385345459, 0.9999592304229736], "min" : [9.128451347351074E-05, 0.00020603835582733154]}, {"bufferView" : 1, "byteOffset" : 32, "componentType" : 5126, "count" : 36, "type" : "VEC4", "max" : [1, 1, 1, 1], "min" : [1, 1, 1, 1]}, {"bufferView" : 0, "byteOffset" : 72, "componentType" : 5123, "count" : 4476, "type" : "SCALAR", "max" : [4475], "min" : [0]}, {"bufferView" : 6, "byteOffset" : 0, "componentType" : 5126, "count" : 4476, "type" : "VEC3", "max" : [268.1716613769531, 45.4485969543457, 0], "min" : [2.3067188262939453, -14.993672370910645, -15]}, {"bufferView" : 6, "byteOffset" : 12, "componentType" : 5126, "count" : 4476, "type" : "VEC3", "max" : [1.0000044107437134, 1.0000044107437134, 1.0000044107437134], "min" : [-1.0000044107437134, -1.0000044107437134, -1.0000044107437134]}, {"bufferView" : 0, "byteOffset" : 9024, "componentType" : 5123, "count" : 3888, "type" : "SCALAR", "max" : [3887], "min" : [0]}, {"bufferView" : 11, "byteOffset" : 0, "componentType" : 5126, "count" : 3888, "type" : "VEC3", "max" : [427.9898681640625, 48.00469207763672, 0], "min" : [0, -0.7792969346046448, -15]}, {"bufferView" : 11, "byteOffset" : 12, "componentType" : 5126, "count" : 3888, "type" : "VEC3", "max" : [1.0000044107437134, 1.0000044107437134, 1.0000044107437134], "min" : [-1.0000044107437134, -1.0000044107437134, -1.0000044107437134]}, {"bufferView" : 0, "byteOffset" : 16800, "componentType" : 5123, "count" : 2568, "type" : "SCALAR", "max" : [2567], "min" : [0]}, {"bufferView" : 16, "byteOffset" : 0, "componentType" : 5126, "count" : 2568, "type" : "VEC3", "max" : [230.01727294921875, 47.25656509399414, 0], "min" : [4.145859718322754, -0.7792969346046448, -15]}, {"bufferView" : 16, "byteOffset" : 12, "componentType" : 5126, "count" : 2568, "type" : "VEC3", "max" : [1.0000044107437134, 1.0000044107437134, 1.0000044107437134], "min" : [-1.0000044107437134, -1.0000044107437134, -1.0000044107437134]}, {"bufferView" : 0, "byteOffset" : 21936, "componentType" : 5123, "count" : 28728, "type" : "SCALAR", "max" : [28727], "min" : [0]}, {"bufferView" : 21, "byteOffset" : 0, "componentType" : 5126, "count" : 28728, "type" : "VEC3", "max" : [718.8702392578125, 12.00117301940918, 0], "min" : [0.8650195598602295, -0.1948242336511612, -15]}, {"bufferView" : 21, "byteOffset" : 12, "componentType" : 5126, "count" : 28728, "type" : "VEC3", "max" : [1.0000044107437134, 1.0000044107437134, 1.0000044107437134], "min" : [-1.0000044107437134, -1.0000044107437134, -1.0000044107437134]}, {"bufferView" : 0, "byteOffset" : 79392, "componentType" : 5123, "count" : 28728, "type" : "SCALAR", "max" : [28727], "min" : [0]}, {"bufferView" : 26, "byteOffset" : 0, "componentType" : 5126, "count" : 28728, "type" : "VEC3", "max" : [718.8702392578125, 12.00117301940918, 0], "min" : [0.8650195598602295, -0.1948242336511612, -15]}, {"bufferView" : 26, "byteOffset" : 12, "componentType" : 5126, "count" : 28728, "type" : "VEC3", "max" : [1.0000044107437134, 1.0000044107437134, 1.0000044107437134], "min" : [-1.0000044107437134, -1.0000044107437134, -1.0000044107437134]}, {"bufferView" : 0, "byteOffset" : 136848, "componentType" : 5123, "count" : 28728, "type" : "SCALAR", "max" : [28727], "min" : [0]}, {"bufferView" : 31, "byteOffset" : 0, "componentType" : 5126, "count" : 28728, "type" : "VEC3", "max" : [718.8702392578125, 12.00117301940918, 0], "min" : [0.8650195598602295, -0.1948242336511612, -15]}, {"bufferView" : 31, "byteOffset" : 12, "componentType" : 5126, "count" : 28728, "type" : "VEC3", "max" : [1.0000044107437134, 1.0000044107437134, 1.0000044107437134], "min" : [-1.0000044107437134, -1.0000044107437134, -1.0000044107437134]}, {"bufferView" : 0, "byteOffset" : 194304, "componentType" : 5123, "count" : 28728, "type" : "SCALAR", "max" : [28727], "min" : [0]}, {"bufferView" : 36, "byteOffset" : 0, "componentType" : 5126, "count" : 28728, "type" : "VEC3", "max" : [718.8702392578125, 12.00117301940918, 0], "min" : [0.8650195598602295, -0.1948242336511612, -15]}, {"bufferView" : 36, "byteOffset" : 12, "componentType" : 5126, "count" : 28728, "type" : "VEC3", "max" : [1.0000044107437134, 1.0000044107437134, 1.0000044107437134], "min" : [-1.0000044107437134, -1.0000044107437134, -1.0000044107437134]}, {"bufferView" : 0, "byteOffset" : 251760, "componentType" : 5123, "count" : 13680, "type" : "SCALAR", "max" : [13679], "min" : [0]}, {"bufferView" : 41, "byteOffset" : 0, "componentType" : 5126, "count" : 13680, "type" : "VEC3", "max" : [339.7189025878906, 12.00117301940918, 0], "min" : [0.8650195598602295, -0.1948242336511612, -15]}, {"bufferView" : 41, "byteOffset" : 12, "componentType" : 5126, "count" : 13680, "type" : "VEC3", "max" : [1.0000044107437134, 1.0000044107437134, 1.0000044107437134], "min" : [-1.0000044107437134, -1.0000044107437134, -1.0000044107437134]}], "asset" : {"generator" : "Aspose.3D 20.9.1", "version" : "2.0"}, "buffers" : [{"uri" : "buffer.bin", "byteLength" : 3970152}], "bufferViews" : [{"buffer" : 0, "byteOffset" : 0, "byteLength" : 279120, "target" : 34963}, {"buffer" : 0, "byteOffset" : 279124, "byteLength" : 1728, "byteStride" : 48, "target" : 34962}, {"buffer" : 0, "byteOffset" : 280856, "byteLength" : 116931}, {"buffer" : 0, "byteOffset" : 397788, "byteLength" : 59383}, {"buffer" : 0, "byteOffset" : 457172, "byteLength" : 116931}, {"buffer" : 0, "byteOffset" : 574104, "byteLength" : 42188}, {"buffer" : 0, "byteOffset" : 616296, "byteLength" : 107424, "byteStride" : 24, "target" : 34962}, {"buffer" : 0, "byteOffset" : 723724, "byteLength" : 163}, {"buffer" : 0, "byteOffset" : 723888, "byteLength" : 163}, {"buffer" : 0, "byteOffset" : 724052, "byteLength" : 163}, {"buffer" : 0, "byteOffset" : 724216, "byteLength" : 163}, {"buffer" : 0, "byteOffset" : 724380, "byteLength" : 93312, "byteStride" : 24, "target" : 34962}, {"buffer" : 0, "byteOffset" : 817696, "byteLength" : 163}, {"buffer" : 0, "byteOffset" : 817860, "byteLength" : 163}, {"buffer" : 0, "byteOffset" : 818024, "byteLength" : 163}, {"buffer" : 0, "byteOffset" : 818188, "byteLength" : 163}, {"buffer" : 0, "byteOffset" : 818352, "byteLength" : 61632, "byteStride" : 24, "target" : 34962}, {"buffer" : 0, "byteOffset" : 879988, "byteLength" : 163}, {"buffer" : 0, "byteOffset" : 880152, "byteLength" : 163}, {"buffer" : 0, "byteOffset" : 880316, "byteLength" : 163}, {"buffer" : 0, "byteOffset" : 880480, "byteLength" : 163}, {"buffer" : 0, "byteOffset" : 880644, "byteLength" : 689472, "byteStride" : 24, "target" : 34962}, {"buffer" : 0, "byteOffset" : 1570120, "byteLength" : 163}, {"buffer" : 0, "byteOffset" : 1570284, "byteLength" : 163}, {"buffer" : 0, "byteOffset" : 1570448, "byteLength" : 163}, {"buffer" : 0, "byteOffset" : 1570612, "byteLength" : 163}, {"buffer" : 0, "byteOffset" : 1570776, "byteLength" : 689472, "byteStride" : 24, "target" : 34962}, {"buffer" : 0, "byteOffset" : 2260252, "byteLength" : 163}, {"buffer" : 0, "byteOffset" : 2260416, "byteLength" : 163}, {"buffer" : 0, "byteOffset" : 2260580, "byteLength" : 163}, {"buffer" : 0, "byteOffset" : 2260744, "byteLength" : 163}, {"buffer" : 0, "byteOffset" : 2260908, "byteLength" : 689472, "byteStride" : 24, "target" : 34962}, {"buffer" : 0, "byteOffset" : 2950384, "byteLength" : 163}, {"buffer" : 0, "byteOffset" : 2950548, "byteLength" : 163}, {"buffer" : 0, "byteOffset" : 2950712, "byteLength" : 163}, {"buffer" : 0, "byteOffset" : 2950876, "byteLength" : 163}, {"buffer" : 0, "byteOffset" : 2951040, "byteLength" : 689472, "byteStride" : 24, "target" : 34962}, {"buffer" : 0, "byteOffset" : 3640516, "byteLength" : 163}, {"buffer" : 0, "byteOffset" : 3640680, "byteLength" : 163}, {"buffer" : 0, "byteOffset" : 3640844, "byteLength" : 163}, {"buffer" : 0, "byteOffset" : 3641008, "byteLength" : 163}, {"buffer" : 0, "byteOffset" : 3641172, "byteLength" : 328320, "byteStride" : 24, "target" : 34962}, {"buffer" : 0, "byteOffset" : 3969496, "byteLength" : 163}, {"buffer" : 0, "byteOffset" : 3969660, "byteLength" : 163}, {"buffer" : 0, "byteOffset" : 3969824, "byteLength" : 163}, {"buffer" : 0, "byteOffset" : 3969988, "byteLength" : 163}], "images" : [{"mimeType" : "image/png", "bufferView" : 2}, {"mimeType" : "image/png", "bufferView" : 3}, {"mimeType" : "image/png", "bufferView" : 4}, {"mimeType" : "image/png", "bufferView" : 5}, {"mimeType" : "image/png", "bufferView" : 7}, {"mimeType" : "image/png", "bufferView" : 8}, {"mimeType" : "image/png", "bufferView" : 9}, {"mimeType" : "image/png", "bufferView" : 10}, {"mimeType" : "image/png", "bufferView" : 12}, {"mimeType" : "image/png", "bufferView" : 13}, {"mimeType" : "image/png", "bufferView" : 14}, {"mimeType" : "image/png", "bufferView" : 15}, {"mimeType" : "image/png", "bufferView" : 17}, {"mimeType" : "image/png", "bufferView" : 18}, {"mimeType" : "image/png", "bufferView" : 19}, {"mimeType" : "image/png", "bufferView" : 20}, {"mimeType" : "image/png", "bufferView" : 22}, {"mimeType" : "image/png", "bufferView" : 23}, {"mimeType" : "image/png", "bufferView" : 24}, {"mimeType" : "image/png", "bufferView" : 25}, {"mimeType" : "image/png", "bufferView" : 27}, {"mimeType" : "image/png", "bufferView" : 28}, {"mimeType" : "image/png", "bufferView" : 29}, {"mimeType" : "image/png", "bufferView" : 30}, {"mimeType" : "image/png", "bufferView" : 32}, {"mimeType" : "image/png", "bufferView" : 33}, {"mimeType" : "image/png", "bufferView" : 34}, {"mimeType" : "image/png", "bufferView" : 35}, {"mimeType" : "image/png", "bufferView" : 37}, {"mimeType" : "image/png", "bufferView" : 38}, {"mimeType" : "image/png", "bufferView" : 39}, {"mimeType" : "image/png", "bufferView" : 40}, {"mimeType" : "image/png", "bufferView" : 42}, {"mimeType" : "image/png", "bufferView" : 43}, {"mimeType" : "image/png", "bufferView" : 44}, {"mimeType" : "image/png", "bufferView" : 45}], "materials" : [{"extensions" : {"KHR_materials_pbrSpecularGlossiness" : {"diffuseFactor" : [1, 1, 1, 1], "diffuseTexture" : {"index" : 0, "texCoord" : 0}, "specularFactor" : [1, 1, 1], "glossinessFactor" : 1, "specularGlossinessTexture" : {"index" : 1, "texCoord" : 0, "scale" : 1}}}, "pbrMetallicRoughness" : {"baseColorFactor" : [1, 1, 1, 1], "baseColorTexture" : {"index" : 2, "texCoord" : 0}, "metallicFactor" : 1, "roughnessFactor" : 1, "metallicRoughnessTexture" : {"index" : 3, "texCoord" : 0}}, "emissiveFactor" : [0, 0, 0], "alphaMode" : "OPAQUE", "doubleSided" : true}, {"extensions" : {"KHR_materials_pbrSpecularGlossiness" : {"diffuseFactor" : [1, 1, 1, 1], "diffuseTexture" : {"index" : 4, "texCoord" : 0}, "specularFactor" : [1, 1, 1], "glossinessFactor" : 1, "specularGlossinessTexture" : {"index" : 5, "texCoord" : 0, "scale" : 1}}}, "pbrMetallicRoughness" : {"baseColorFactor" : [1, 1, 1, 1], "baseColorTexture" : {"index" : 6, "texCoord" : 0}, "metallicFactor" : 1, "roughnessFactor" : 1, "metallicRoughnessTexture" : {"index" : 7, "texCoord" : 0}}, "emissiveFactor" : [0, 0, 0], "alphaMode" : "OPAQUE", "doubleSided" : true}, {"extensions" : {"KHR_materials_pbrSpecularGlossiness" : {"diffuseFactor" : [1, 1, 1, 1], "diffuseTexture" : {"index" : 8, "texCoord" : 0}, "specularFactor" : [1, 1, 1], "glossinessFactor" : 1, "specularGlossinessTexture" : {"index" : 9, "texCoord" : 0, "scale" : 1}}}, "pbrMetallicRoughness" : {"baseColorFactor" : [1, 1, 1, 1], "baseColorTexture" : {"index" : 10, "texCoord" : 0}, "metallicFactor" : 1, "roughnessFactor" : 1, "metallicRoughnessTexture" : {"index" : 11, "texCoord" : 0}}, "emissiveFactor" : [0, 0, 0], "alphaMode" : "OPAQUE", "doubleSided" : true}, {"extensions" : {"KHR_materials_pbrSpecularGlossiness" : {"diffuseFactor" : [1, 1, 1, 1], "diffuseTexture" : {"index" : 12, "texCoord" : 0}, "specularFactor" : [1, 1, 1], "glossinessFactor" : 1, "specularGlossinessTexture" : {"index" : 13, "texCoord" : 0, "scale" : 1}}}, "pbrMetallicRoughness" : {"baseColorFactor" : [1, 1, 1, 1], "baseColorTexture" : {"index" : 14, "texCoord" : 0}, "metallicFactor" : 1, "roughnessFactor" : 1, "metallicRoughnessTexture" : {"index" : 15, "texCoord" : 0}}, "emissiveFactor" : [0, 0, 0], "alphaMode" : "OPAQUE", "doubleSided" : true}, {"extensions" : {"KHR_materials_pbrSpecularGlossiness" : {"diffuseFactor" : [1, 1, 1, 1], "diffuseTexture" : {"index" : 16, "texCoord" : 0}, "specularFactor" : [1, 1, 1], "glossinessFactor" : 1, "specularGlossinessTexture" : {"index" : 17, "texCoord" : 0, "scale" : 1}}}, "pbrMetallicRoughness" : {"baseColorFactor" : [1, 1, 1, 1], "baseColorTexture" : {"index" : 18, "texCoord" : 0}, "metallicFactor" : 1, "roughnessFactor" : 1, "metallicRoughnessTexture" : {"index" : 19, "texCoord" : 0}}, "emissiveFactor" : [0, 0, 0], "alphaMode" : "OPAQUE", "doubleSided" : true}, {"extensions" : {"KHR_materials_pbrSpecularGlossiness" : {"diffuseFactor" : [1, 1, 1, 1], "diffuseTexture" : {"index" : 20, "texCoord" : 0}, "specularFactor" : [1, 1, 1], "glossinessFactor" : 1, "specularGlossinessTexture" : {"index" : 21, "texCoord" : 0, "scale" : 1}}}, "pbrMetallicRoughness" : {"baseColorFactor" : [1, 1, 1, 1], "baseColorTexture" : {"index" : 22, "texCoord" : 0}, "metallicFactor" : 1, "roughnessFactor" : 1, "metallicRoughnessTexture" : {"index" : 23, "texCoord" : 0}}, "emissiveFactor" : [0, 0, 0], "alphaMode" : "OPAQUE", "doubleSided" : true}, {"extensions" : {"KHR_materials_pbrSpecularGlossiness" : {"diffuseFactor" : [1, 1, 1, 1], "diffuseTexture" : {"index" : 24, "texCoord" : 0}, "specularFactor" : [1, 1, 1], "glossinessFactor" : 1, "specularGlossinessTexture" : {"index" : 25, "texCoord" : 0, "scale" : 1}}}, "pbrMetallicRoughness" : {"baseColorFactor" : [1, 1, 1, 1], "baseColorTexture" : {"index" : 26, "texCoord" : 0}, "metallicFactor" : 1, "roughnessFactor" : 1, "metallicRoughnessTexture" : {"index" : 27, "texCoord" : 0}}, "emissiveFactor" : [0, 0, 0], "alphaMode" : "OPAQUE", "doubleSided" : true}, {"extensions" : {"KHR_materials_pbrSpecularGlossiness" : {"diffuseFactor" : [1, 1, 1, 1], "diffuseTexture" : {"index" : 28, "texCoord" : 0}, "specularFactor" : [1, 1, 1], "glossinessFactor" : 1, "specularGlossinessTexture" : {"index" : 29, "texCoord" : 0, "scale" : 1}}}, "pbrMetallicRoughness" : {"baseColorFactor" : [1, 1, 1, 1], "baseColorTexture" : {"index" : 30, "texCoord" : 0}, "metallicFactor" : 1, "roughnessFactor" : 1, "metallicRoughnessTexture" : {"index" : 31, "texCoord" : 0}}, "emissiveFactor" : [0, 0, 0], "alphaMode" : "OPAQUE", "doubleSided" : true}, {"extensions" : {"KHR_materials_pbrSpecularGlossiness" : {"diffuseFactor" : [1, 1, 1, 1], "diffuseTexture" : {"index" : 32, "texCoord" : 0}, "specularFactor" : [1, 1, 1], "glossinessFactor" : 1, "specularGlossinessTexture" : {"index" : 33, "texCoord" : 0, "scale" : 1}}}, "pbrMetallicRoughness" : {"baseColorFactor" : [1, 1, 1, 1], "baseColorTexture" : {"index" : 34, "texCoord" : 0}, "metallicFactor" : 1, "roughnessFactor" : 1, "metallicRoughnessTexture" : {"index" : 35, "texCoord" : 0}}, "emissiveFactor" : [0, 0, 0], "alphaMode" : "OPAQUE", "doubleSided" : true}], "meshes" : [{"primitives" : [{"attributes" : {"POSITION" : 1, "NORMAL" : 2, "TEXCOORD_0" : 3, "COLOR" : 4}, "indices" : 0, "material" : 0, "mode" : 4}]}, {"primitives" : [{"attributes" : {"POSITION" : 6, "NORMAL" : 7}, "indices" : 5, "material" : 1, "mode" : 4}]}, {"primitives" : [{"attributes" : {"POSITION" : 9, "NORMAL" : 10}, "indices" : 8, "material" : 2, "mode" : 4}]}, {"primitives" : [{"attributes" : {"POSITION" : 12, "NORMAL" : 13}, "indices" : 11, "material" : 3, "mode" : 4}]}, {"primitives" : [{"attributes" : {"POSITION" : 15, "NORMAL" : 16}, "indices" : 14, "material" : 4, "mode" : 4}]}, {"primitives" : [{"attributes" : {"POSITION" : 18, "NORMAL" : 19}, "indices" : 17, "material" : 5, "mode" : 4}]}, {"primitives" : [{"attributes" : {"POSITION" : 21, "NORMAL" : 22}, "indices" : 20, "material" : 6, "mode" : 4}]}, {"primitives" : [{"attributes" : {"POSITION" : 24, "NORMAL" : 25}, "indices" : 23, "material" : 7, "mode" : 4}]}, {"primitives" : [{"attributes" : {"POSITION" : 27, "NORMAL" : 28}, "indices" : 26, "material" : 8, "mode" : 4}]}], "nodes" : [{"matrix" : [0.001162888715043664, 0, 0, 0, 0, 0.0010599596425890923, 0, 0, 0, 0, 6.463388854172081E-05, 0, -0.006429443601518869, -0.0027024843730032444, -0.0005460300599224865, 1], "mesh" : 0}, {"matrix" : [1, 0, 0, 0, 0, 1, 0, 0, 0, 0, 1, 0, -135.99493408203125, 71.66535186767578, 7.5, 1], "mesh" : 1}, {"matrix" : [1, 0, 0, 0, 0, 1, 0, 0, 0, 0, 1, 0, -213.99493408203125, -31.33464813232422, 7.5, 1], "mesh" : 2}, {"matrix" : [1, 0, 0, 0, 0, 1, 0, 0, 0, 0, 1, 0, -117.99493408203125, -116.33464813232422, 7.5, 1], "mesh" : 3}, {"children" : [1, 2, 3], "matrix" : [0.001000000047497423, -2.3841861884754813E-10, -6.018532079539094E-39, 0, 2.3841861884754813E-10, 0.001000000047497423, -7.023308407842168E-45, 0, 6.0185320795406E-39, 5.588378370104136E-45, 0.0010000000474974513, 0, -0.012198242358863354, 0.13810278475284576, 0.0279726292937994, 1], "name" : "node_id48"}, {"matrix" : [1, 0, 0, 0, 0, 1, 0, 0, 0, 0, 1, 0, -359.8675842285156, 36.596824645996094, 7.5, 1], "mesh" : 4}, {"matrix" : [1, 0, 0, 0, 0, 1, 0, 0, 0, 0, 1, 0, -359.8675842285156, 15.596824645996094, 7.5, 1], "mesh" : 5}, {"matrix" : [1, 0, 0, 0, 0, 1, 0, 0, 0, 0, 1, 0, -359.8675842285156, -6.403175354003906, 7.5, 1], "mesh" : 6}, {"matrix" : [1, 0, 0, 0, 0, 1, 0, 0, 0, 0, 1, 0, -359.8675842285156, -27.403175354003906, 7.5, 1], "mesh" : 7}, {"matrix" : [1, 0, 0, 0, 0, 1, 0, 0, 0, 0, 1, 0, -169.86758422851562, -48.40317153930664, 7.5, 1], "mesh" : 8}, {"children" : [5, 6, 7, 8, 9], "matrix" : [0.001000000047497423, -2.3841861884754813E-10, -2.842171078036236E-17, 0, 2.3841861884754813E-10, 0.001000000047497423, -6.776264101838053E-24, 0, 2.8421710780363174E-17, -6.058452039858388E-31, 0.0010000000474974513, 0, -0.024507815018296242, -0.16831378638744354, 0.0279726292937994, 1], "name" : "node_id57"}, {"children" : [0, 4, 10], "name" : "root"}], "samplers" : [{"magFilter" : 9728, "minFilter" : 9985, "wrapS" : 10497, "wrapT" : 10497}, {"magFilter" : 9728, "minFilter" : 9985, "wrapS" : 10497, "wrapT" : 10497}, {"magFilter" : 9728, "minFilter" : 9985, "wrapS" : 10497, "wrapT" : 10497}, {"magFilter" : 9728, "minFilter" : 9985, "wrapS" : 10497, "wrapT" : 10497}, {"magFilter" : 9728, "minFilter" : 9985, "wrapS" : 10497, "wrapT" : 10497}, {"magFilter" : 9728, "minFilter" : 9985, "wrapS" : 10497, "wrapT" : 10497}, {"magFilter" : 9728, "minFilter" : 9985, "wrapS" : 10497, "wrapT" : 10497}, {"magFilter" : 9728, "minFilter" : 9985, "wrapS" : 10497, "wrapT" : 10497}, {"magFilter" : 9728, "minFilter" : 9985, "wrapS" : 10497, "wrapT" : 10497}, {"magFilter" : 9728, "minFilter" : 9985, "wrapS" : 10497, "wrapT" : 10497}, {"magFilter" : 9728, "minFilter" : 9985, "wrapS" : 10497, "wrapT" : 10497}, {"magFilter" : 9728, "minFilter" : 9985, "wrapS" : 10497, "wrapT" : 10497}, {"magFilter" : 9728, "minFilter" : 9985, "wrapS" : 10497, "wrapT" : 10497}, {"magFilter" : 9728, "minFilter" : 9985, "wrapS" : 10497, "wrapT" : 10497}, {"magFilter" : 9728, "minFilter" : 9985, "wrapS" : 10497, "wrapT" : 10497}, {"magFilter" : 9728, "minFilter" : 9985, "wrapS" : 10497, "wrapT" : 10497}, {"magFilter" : 9728, "minFilter" : 9985, "wrapS" : 10497, "wrapT" : 10497}, {"magFilter" : 9728, "minFilter" : 9985, "wrapS" : 10497, "wrapT" : 10497}, {"magFilter" : 9728, "minFilter" : 9985, "wrapS" : 10497, "wrapT" : 10497}, {"magFilter" : 9728, "minFilter" : 9985, "wrapS" : 10497, "wrapT" : 10497}, {"magFilter" : 9728, "minFilter" : 9985, "wrapS" : 10497, "wrapT" : 10497}, {"magFilter" : 9728, "minFilter" : 9985, "wrapS" : 10497, "wrapT" : 10497}, {"magFilter" : 9728, "minFilter" : 9985, "wrapS" : 10497, "wrapT" : 10497}, {"magFilter" : 9728, "minFilter" : 9985, "wrapS" : 10497, "wrapT" : 10497}, {"magFilter" : 9728, "minFilter" : 9985, "wrapS" : 10497, "wrapT" : 10497}, {"magFilter" : 9728, "minFilter" : 9985, "wrapS" : 10497, "wrapT" : 10497}, {"magFilter" : 9728, "minFilter" : 9985, "wrapS" : 10497, "wrapT" : 10497}, {"magFilter" : 9728, "minFilter" : 9985, "wrapS" : 10497, "wrapT" : 10497}, {"magFilter" : 9728, "minFilter" : 9985, "wrapS" : 10497, "wrapT" : 10497}, {"magFilter" : 9728, "minFilter" : 9985, "wrapS" : 10497, "wrapT" : 10497}, {"magFilter" : 9728, "minFilter" : 9985, "wrapS" : 10497, "wrapT" : 10497}, {"magFilter" : 9728, "minFilter" : 9985, "wrapS" : 10497, "wrapT" : 10497}, {"magFilter" : 9728, "minFilter" : 9985, "wrapS" : 10497, "wrapT" : 10497}, {"magFilter" : 9728, "minFilter" : 9985, "wrapS" : 10497, "wrapT" : 10497}, {"magFilter" : 9728, "minFilter" : 9985, "wrapS" : 10497, "wrapT" : 10497}, {"magFilter" : 9728, "minFilter" : 9985, "wrapS" : 10497, "wrapT" : 10497}], "scene" : 0, "scenes" : [{"nodes" : [11]}], "textures" : [{"sampler" : 0, "source" : 0}, {"sampler" : 1, "source" : 1}, {"sampler" : 2, "source" : 2}, {"sampler" : 3, "source" : 3}, {"sampler" : 4, "source" : 4}, {"sampler" : 5, "source" : 5}, {"sampler" : 6, "source" : 6}, {"sampler" : 7, "source" : 7}, {"sampler" : 8, "source" : 8}, {"sampler" : 9, "source" : 9}, {"sampler" : 10, "source" : 10}, {"sampler" : 11, "source" : 11}, {"sampler" : 12, "source" : 12}, {"sampler" : 13, "source" : 13}, {"sampler" : 14, "source" : 14}, {"sampler" : 15, "source" : 15}, {"sampler" : 16, "source" : 16}, {"sampler" : 17, "source" : 17}, {"sampler" : 18, "source" : 18}, {"sampler" : 19, "source" : 19}, {"sampler" : 20, "source" : 20}, {"sampler" : 21, "source" : 21}, {"sampler" : 22, "source" : 22}, {"sampler" : 23, "source" : 23}, {"sampler" : 24, "source" : 24}, {"sampler" : 25, "source" : 25}, {"sampler" : 26, "source" : 26}, {"sampler" : 27, "source" : 27}, {"sampler" : 28, "source" : 28}, {"sampler" : 29, "source" : 29}, {"sampler" : 30, "source" : 30}, {"sampler" : 31, "source" : 31}, {"sampler" : 32, "source" : 32}, {"sampler" : 33, "source" : 33}, {"sampler" : 34, "source" : 34}, {"sampler" : 35, "source" : 35}]}